<?xml version="1.0" standalone="no"?><!-- Generator: Gravit.io --><svg xmlns="http://www.w3.org/2000/svg" xmlns:xlink="http://www.w3.org/1999/xlink" style="isolation:isolate" viewBox="0 0 1280 800" width="1280" height="800"><defs><clipPath id="_clipPath_wtbnzIc16B81UquZrmdfhuYyD1s3CZHQ"><rect width="1280" height="800"/></clipPath></defs><g clip-path="url(#_clipPath_wtbnzIc16B81UquZrmdfhuYyD1s3CZHQ)"><g><g opacity="0.36"><path d=" M 1001.596 501.008 C 1001.596 501.48 1001.596 501.952 1001.596 502.416 Q 1001.472 514.62 1000.15 526.762 C 1000.154 526.811 1000.154 526.86 1000.15 526.909 C 1000.08 527.582 1000.003 528.247 999.925 528.92 C 999.794 530.057 999.655 531.186 999.5 532.323 C 997.697 546.162 994.714 559.821 990.583 573.151 L 990.583 573.151 C 985.049 591.163 977.225 608.391 967.303 624.412 Q 962.725 631.759 957.551 638.634 L 957.551 638.634 C 955.71 641.063 953.831 643.437 951.89 645.773 Q 949.848 648.225 947.729 650.599 L 946.847 651.573 C 939.414 659.735 931.401 667.35 922.872 674.358 C 908.951 685.897 893.962 695.935 878.734 705.247 C 877.868 705.781 876.994 706.307 876.12 706.794 C 876.059 706.838 875.994 706.877 875.926 706.91 C 855.23 719.424 833.768 730.715 811.657 739.756 C 787.45 749.679 762.453 756.895 736.807 760.05 C 701.061 764.443 664.881 760.87 629.351 754.729 C 599.802 749.652 570.61 742.677 541.957 733.848 L 537.24 732.37 Q 533.574 731.203 529.915 729.988 Q 507.819 722.68 486.218 713.747 C 450.05 698.85 415.499 680.298 383.101 658.379 Q 376.914 654.218 370.905 649.872 Q 362.505 643.824 354.307 637.42 L 350.935 634.806 C 336.633 623.606 323.232 611.3 310.858 598 C 294.214 579.887 279.992 559.454 270.641 536.128 Q 268.429 530.629 266.589 524.922 L 266.473 524.543 C 265.854 522.609 265.281 520.676 264.756 518.665 Q 263.595 514.349 262.722 509.925 C 262.598 509.361 262.49 508.796 262.389 508.224 C 260.54 498.299 259.724 488.209 259.953 478.115 C 260.146 469.272 261.182 460.467 263.046 451.82 L 263.046 451.82 C 264.954 442.856 267.895 434.144 271.809 425.857 L 271.809 425.857 C 275.346 418.405 279.853 411.454 285.212 405.184 L 285.212 405.184 C 288.978 400.8 293.213 396.842 297.842 393.382 C 306.233 387.133 315.537 382.779 325.181 379.337 L 325.181 379.337 C 329.713 377.713 334.307 376.29 338.925 374.967 C 342.196 374.024 345.483 373.127 348.754 372.245 L 358.406 369.638 C 364.594 367.952 370.781 366.22 376.875 364.348 C 393.488 359.275 409.768 353.134 424.826 343.977 C 427.208 342.531 429.636 340.945 432.065 339.244 C 435.159 337.094 438.206 334.758 441.222 332.237 L 441.222 332.237 C 444.269 329.685 447.255 326.955 450.101 324.062 C 450.541 323.614 450.975 323.165 451.408 322.709 C 453.728 320.265 455.978 317.705 458.067 315.044 C 459.088 313.745 460.077 312.422 461.021 311.077 C 462.328 309.213 463.566 307.318 464.71 305.369 L 464.71 305.369 C 470.449 295.624 473.991 284.874 473.573 273.544 C 473.512 271.677 473.344 269.815 473.071 267.967 C 472.065 261.138 471.098 254.472 470.387 247.952 C 467.402 220.983 468.662 196.529 488.902 173.551 C 514.068 144.989 553.566 139.166 589.521 141.447 C 693.474 148.021 788.107 207.372 871.271 278.029 Q 882.059 287.186 892.585 296.591 Q 895.238 298.958 897.899 301.355 C 911.046 313.196 923.993 325.477 936.05 338.633 C 937.025 339.7 937.999 340.767 938.958 341.843 C 939.546 342.508 940.142 343.165 940.722 343.838 Q 946.36 350.218 951.665 356.908 C 961.14 368.748 969.508 381.434 976.662 394.805 C 987.616 415.789 995.032 438.437 998.611 461.835 L 998.611 461.835 C 999.956 470.333 1000.842 478.896 1001.263 487.489 C 1001.395 490.018 1001.48 492.555 1001.526 495.084 C 1001.526 495.896 1001.526 496.7 1001.526 497.512 C 1001.604 498.688 1001.604 499.832 1001.596 501.008 Z " fill="rgb(119,161,253)"/></g><path d=" M 564.618 488.038 L 552.243 708.294 L 564.618 708.457 L 574.672 484.945 L 564.618 488.038 L 564.618 488.038 Z " fill="rgb(63,61,86)"/><rect x="365.854" y="599.632" width="153.133" height="33.256" transform="matrix(1,0,0,1,0,0)" fill="rgb(108,99,255)"/><path d=" M 529.041 629.013 L 529.041 649.895 L 370.858 649.895 Q 362.459 643.847 354.261 637.443 L 354.261 629.013 L 529.041 629.013 Z " fill="rgb(63,61,86)"/><path d=" M 560.627 581.488 C 560.194 583.491 559.629 585.471 559.034 587.443 C 557.278 593.143 555.167 598.766 554.757 604.69 C 554.208 612.517 556.304 621.62 550.89 627.304 C 549.498 628.774 547.68 629.872 546.435 631.442 C 546.243 631.688 546.068 631.946 545.909 632.215 C 544.796 634.056 544.664 636.299 544.649 638.402 C 544.662 642.889 544.954 647.37 545.523 651.821 C 547.356 667.134 550.975 682.478 546.219 696.933 C 545.357 699.44 544.352 701.896 543.21 704.288 C 540.89 709.393 538.361 714.427 537.603 719.957 C 537.046 724.056 537.216 728.279 537.185 732.448 Q 533.519 731.28 529.861 730.066 Q 507.765 722.757 486.164 713.824 C 486.203 713.615 486.242 713.399 486.273 713.19 C 487.378 706.307 485.863 699.269 484.022 692.556 C 480.155 678.333 474.679 664.249 471.439 649.926 C 470.134 644.332 469.278 638.642 468.879 632.911 C 468.786 631.627 468.732 630.336 468.724 629.044 C 468.685 627.358 468.724 625.672 468.794 623.971 C 468.956 620.575 469.103 616.546 466.388 614.481 C 464.896 613.36 462.924 613.166 461.183 612.486 C 457.827 611.179 455.53 608.147 452.869 605.719 C 450.293 603.219 446.651 602.149 443.132 602.857 C 425.746 606.84 412.97 621.589 396.79 629.044 C 396.164 629.338 395.537 629.617 394.903 629.88 C 392.81 630.646 390.818 631.664 388.971 632.911 C 387.673 633.812 386.732 635.139 386.311 636.662 C 385.901 638.302 386.257 640.019 386.458 641.705 C 386.783 644.446 386.666 647.222 386.11 649.926 C 385.9 650.974 385.623 652.007 385.282 653.02 C 384.663 654.853 383.836 656.647 383.047 658.433 Q 376.86 654.272 370.85 649.926 Q 362.451 643.878 354.253 637.474 L 350.935 634.806 C 336.633 623.606 323.232 611.3 310.858 598 C 312.505 593.36 314.887 589.044 316.032 584.288 C 316.682 581.558 316.921 578.719 317.818 576.066 C 318.853 573.316 320.292 570.736 322.088 568.41 C 328.664 559.238 336.695 551.203 345.862 544.62 C 355.444 537.752 366.512 532.246 375.135 524.45 C 378.635 521.386 381.651 517.811 384.083 513.846 C 384.23 513.607 384.369 513.351 384.493 513.073 C 385.166 511.673 385.633 510.183 385.878 508.649 C 386.496 505.184 386.403 501.379 386.713 498.054 C 397.218 499.872 407.927 500.195 418.523 499.013 C 430.858 497.628 442.923 494.202 455.259 492.872 C 456.187 492.764 457.123 492.679 458.059 492.601 C 462.011 492.284 465.971 492.214 469.938 492.261 C 473.256 492.261 476.574 492.408 479.892 492.516 L 516.42 493.754 C 520.464 493.893 524.594 494.047 528.361 495.525 C 532.831 497.28 536.412 500.776 539.281 504.62 C 539.645 505.115 540.008 505.61 540.349 506.12 C 542.71 509.564 544.603 513.307 545.979 517.249 C 546.126 517.652 546.265 518.023 546.397 518.464 C 546.745 519.539 547.046 520.621 547.317 521.72 C 547.526 522.578 547.711 523.437 547.881 524.303 C 548.732 528.587 549.235 532.965 550.581 537.103 C 550.673 537.404 550.774 537.706 550.882 538 C 552.499 542.532 555.182 546.592 557.209 550.946 C 558.67 554.098 559.785 557.399 560.534 560.792 C 562.049 567.604 562.081 574.662 560.627 581.488 Z " fill="rgb(53,50,62)"/><path d=" M 449.598 304.712 C 446.334 302.113 441.601 304.016 437.78 305.694 C 434.577 307.109 431.28 308.3 427.912 309.259 C 427.223 309.524 426.475 309.602 425.746 309.483 C 424.2 309.112 423.55 307.279 422.397 306.166 C 420.394 304.24 417.115 304.696 414.532 305.74 C 411.949 306.784 409.397 308.292 406.628 308.06 C 403.673 307.828 401.106 305.647 398.12 305.578 C 392.861 305.454 388.445 311.935 383.472 310.218 C 380.441 309.174 378.059 305.23 375.073 306.351 C 372.753 307.233 372.544 310.443 371.144 312.538 C 369.497 314.982 366.287 315.671 363.542 316.753 C 354.887 320.172 349.157 329.816 350.286 339.051 C 350.912 344.147 353.379 348.819 355.011 353.683 C 359.853 367.829 358.19 383.784 364.292 397.427 C 365.065 396.7 365.499 396.429 366.249 395.71 C 364.319 399.711 363.947 404.287 365.205 408.548 C 365.847 410.691 366.891 412.686 367.68 414.782 C 368.499 417.133 369.16 419.535 369.659 421.974 L 376.388 451.657 C 379.018 463.258 381.655 474.859 382.111 486.739 C 382.395 494.463 381.804 502.195 380.348 509.786 C 392.537 507.768 403.689 502.361 416.04 502.431 C 420.572 502.431 425.066 503.205 429.559 503.823 C 442.66 505.656 455.875 506.553 469.103 506.507 C 471.16 506.624 473.221 506.335 475.166 505.656 C 476.868 504.929 478.26 503.638 479.869 502.702 C 483.016 500.846 486.829 500.382 490.457 500.382 C 507 500.08 522.939 506.136 539.374 508.27 C 545.863 494.651 546.25 478.332 541.269 464.094 C 539.792 459.863 537.804 455.741 537.216 451.294 C 536.98 448.56 536.918 445.814 537.031 443.073 C 537.005 436.054 535.74 429.095 533.295 422.516 C 532.336 419.94 531.184 417.319 531.284 414.573 C 531.385 411.827 532.738 409.267 534.069 406.839 C 536.768 401.889 539.482 396.893 543.295 392.717 C 547.201 388.401 552.089 385.114 556.922 381.889 L 568.856 373.877 C 567.224 363.567 565.121 352.709 560.751 343.227 C 556.381 333.745 549.846 325.029 541.006 319.484 C 538.026 317.691 534.907 316.139 531.679 314.843 C 527.162 312.941 522.46 311.262 517.564 310.976 C 511.996 310.659 506.512 312.152 501.013 313.08 C 483.705 315.996 463.333 315.64 449.598 304.712 Z " fill="rgb(119,161,253)"/><path d=" M 580.086 483.614 L 574.409 490.784 L 563.705 504.295 L 551.331 519.91 L 547.874 524.272 L 541.168 524.272 L 375.127 524.465 L 271.144 524.581 L 266.503 524.581 C 265.885 522.648 265.312 520.714 264.787 518.703 Q 263.626 514.388 262.752 509.964 C 262.629 509.399 262.52 508.835 262.42 508.263 L 300.146 483.599 L 314.33 483.521 L 314.33 483.521 L 357.718 483.274 L 357.718 483.274 L 381.949 483.135 L 386.373 483.135 L 389.149 483.135 L 389.149 483.135 L 405.298 483.05 L 405.298 483.05 L 528.376 482.346 L 528.376 482.346 L 534.672 482.307 L 534.672 482.307 L 537.402 482.307 L 544.633 482.269 L 571.54 482.114 L 576.706 480.149 L 577.085 480.552 L 580.086 483.614 Z " fill="rgb(63,61,86)"/><path d=" M 577.766 479.747 L 577.124 480.521 L 572.901 485.494 L 564.208 495.757 L 545.979 517.249 L 384.493 513.127 L 262.722 510.034 C 262.598 509.469 262.49 508.904 262.389 508.332 C 260.54 498.407 259.724 488.317 259.953 478.224 L 273.456 471.31 L 276.55 469.716 L 300.626 457.342 L 321.755 446.514 L 376.867 453.676 L 389.072 455.261 L 394.594 455.973 L 402.676 457.025 L 403.356 457.118 L 530.093 473.552 L 544.1 475.37 L 552.321 476.437 L 577.657 479.732 L 577.766 479.747 Z " fill="rgb(80,79,96)"/><path d=" M 551.47 516.87 L 551.339 519.91 L 550.565 537.072 L 546.404 631.426 L 545.523 651.821 L 543.202 704.288 L 541.895 733.925 L 537.178 732.448 Q 533.512 731.28 529.854 730.066 L 541.168 524.341 L 541.408 520.026 L 546.389 518.479 L 551.47 516.87 Z " fill="rgb(63,61,86)"/><path d=" M 271.5 516.646 L 271.152 524.589 L 270.641 536.19 Q 268.429 530.691 266.589 524.983 L 266.473 524.604 C 265.854 522.671 265.281 520.737 264.756 518.727 L 271.5 516.646 Z " fill="rgb(63,61,86)"/><ellipse vector-effect="non-scaling-stroke" cx="473.743440920286" cy="351.7574986628818" rx="35.57635305348566" ry="47.950736724263265" fill="rgb(161,97,106)"/><g opacity="0.1"><ellipse vector-effect="non-scaling-stroke" cx="473.743440920286" cy="351.7574986628818" rx="35.57635305348566" ry="47.950736724263265" fill="rgb(174,110,119)"/></g><circle vector-effect="non-scaling-stroke" cx="478.77053428653943" cy="322.7550369344967" r="49.49753468311047" fill="rgb(174,110,119)"/><path d=" M 479.753 246.467 C 476.731 246.708 473.73 247.165 470.774 247.836 C 462.947 249.738 456.18 253.961 449.59 258.107 C 446.636 259.971 443.596 261.912 441.763 264.65 C 438.469 269.561 439.745 275.81 437.896 281.262 C 436.937 284.062 435.174 286.575 433.681 289.182 C 429.575 296.328 427.425 304.178 425.313 311.951 C 424.88 313.559 424.756 315.74 426.512 316.359 C 427.523 316.569 428.575 316.45 429.513 316.019 C 435.058 314.186 442.104 313.66 446.218 317.38 C 450.333 321.1 449.985 327.697 454.88 330.528 C 460.487 333.799 469.242 329.847 474.331 333.706 C 476.512 335.361 477.301 338.014 479.088 340.01 C 483.249 344.65 491.253 344.426 497.912 343.49 C 501.733 342.948 506.42 342.585 508.74 345.269 C 509.853 346.537 510.171 348.277 511.462 349.422 C 513.782 351.495 518.028 350.443 520.294 348.316 C 522.56 346.189 523.643 343.312 525.53 340.922 C 529.204 336.282 535.662 333.753 539.451 329.167 C 542.622 325.3 543.581 320.458 544.448 315.787 L 547.673 298.47 C 548.98 291.448 550.171 283.776 546.219 277.589 C 544.811 275.361 542.792 273.443 541.578 271.138 C 540.766 269.592 540.31 267.96 539.366 266.498 C 538.247 264.975 536.911 263.625 535.399 262.492 L 527.765 256.173 C 525.155 253.889 522.365 251.819 519.42 249.986 C 508.523 243.636 492.204 245.307 479.753 246.467 Z " fill="rgb(70,67,83)"/><path d=" M 316.72 373.97 C 314.887 375.918 313.194 378.022 311.229 379.847 C 309.501 381.384 307.694 382.83 305.815 384.178 Q 301.268 387.581 296.921 391.224 C 293.898 393.614 291.163 396.347 288.77 399.368 C 284.64 404.913 282.683 411.812 278.816 417.543 C 275.398 422.624 270.579 426.638 267.107 431.681 C 265.583 433.801 264.452 436.176 263.766 438.695 C 263.253 441.133 263.023 443.622 263.077 446.112 C 263.008 450.196 262.946 454.326 263.781 458.324 C 264.616 462.323 266.449 466.251 269.589 468.873 C 272.505 471.31 276.271 472.431 279.961 473.359 C 281.863 473.831 283.92 474.272 285.73 473.521 C 287.054 472.853 288.204 471.883 289.087 470.691 L 298.499 459.863 C 304.794 452.593 311.337 445.169 319.976 440.915 C 322.683 439.592 325.537 438.595 328.252 437.311 C 339.76 431.766 347.896 420.412 351.051 408.038 C 351.825 405.014 352.32 401.928 352.823 398.842 L 354.184 390.381 C 354.288 389.957 354.288 389.514 354.184 389.089 C 353.971 388.612 353.627 388.205 353.194 387.914 C 346.638 382.619 340.499 376.827 334.833 370.59 C 333.488 369.105 332.227 367.071 330.672 365.826 C 328.723 364.279 328.87 364.395 326.527 365.826 C 322.922 368.108 319.626 370.845 316.72 373.97 L 316.72 373.97 Z " fill="rgb(161,97,106)"/><path d=" M 381.106 430.273 C 380.893 429.784 380.429 429.451 379.897 429.405 C 379.365 429.359 378.851 429.609 378.558 430.055 C 378.265 430.5 378.239 431.071 378.492 431.541 L 377.718 431.92 L 400.781 479.19 L 404.95 477.156 L 381.887 429.855 L 381.106 430.273 Z " fill="rgb(63,61,86)"/><g opacity="0.04"><path d=" M 316.72 373.97 C 314.887 375.918 313.194 378.022 311.229 379.847 C 309.501 381.384 307.694 382.83 305.815 384.178 Q 301.268 387.581 296.921 391.224 C 293.898 393.614 291.163 396.347 288.77 399.368 C 284.64 404.913 282.683 411.812 278.816 417.543 C 275.398 422.624 270.579 426.638 267.107 431.681 C 265.583 433.801 264.452 436.176 263.766 438.695 C 263.253 441.133 263.023 443.622 263.077 446.112 C 263.008 450.196 262.946 454.326 263.781 458.324 C 264.616 462.323 266.449 466.251 269.589 468.873 C 272.505 471.31 276.271 472.431 279.961 473.359 C 281.863 473.831 283.92 474.272 285.73 473.521 C 287.054 472.853 288.204 471.883 289.087 470.691 L 298.499 459.863 C 304.794 452.593 311.337 445.169 319.976 440.915 C 322.683 439.592 325.537 438.595 328.252 437.311 C 339.76 431.766 347.896 420.412 351.051 408.038 C 351.825 405.014 352.32 401.928 352.823 398.842 L 354.184 390.381 C 354.288 389.957 354.288 389.514 354.184 389.089 C 353.971 388.612 353.627 388.205 353.194 387.914 C 346.638 382.619 340.499 376.827 334.833 370.59 C 333.488 369.105 332.227 367.071 330.672 365.826 C 328.723 364.279 328.87 364.395 326.527 365.826 C 322.922 368.108 319.626 370.845 316.72 373.97 L 316.72 373.97 Z " fill="rgb(174,110,119)"/></g><path d=" M 583.342 461.085 C 583.264 466.019 583.071 471.101 581.022 475.602 C 580.14 477.551 578.771 479.469 576.722 480.111 C 575.481 480.397 574.198 480.445 572.94 480.25 C 557.766 478.916 542.477 480.129 527.703 483.839 C 531.648 475.95 529.382 466.491 530.472 457.736 C 530.774 455.347 531.323 452.995 531.532 450.598 C 532.305 442.091 528.663 433.831 526.992 425.431 C 525.542 418.161 525.542 410.676 526.992 403.405 C 527.276 401.534 527.92 399.735 528.887 398.107 C 530.02 396.524 531.508 395.228 533.233 394.325 C 539.498 390.76 546.884 390.35 553.922 390.822 C 558.663 391.139 568.168 390.69 572.12 393.606 C 576.443 396.8 577.812 407.527 578.98 412.485 C 580.728 420.088 581.918 427.809 582.537 435.586 C 583.295 444.063 583.458 452.578 583.342 461.085 Z " fill="rgb(174,110,119)"/><path d=" M 306.303 478.208 L 334.145 496.77 L 459.436 492.129 L 376.682 478.208 L 306.303 478.208 L 306.303 478.208 Z " fill="rgb(255,255,255)"/><path d=" M 343.016 330.729 C 338.445 334.758 334.57 339.507 330.239 343.799 C 324.3 349.693 317.548 354.704 310.827 359.693 C 315.729 361.063 319.549 364.912 320.881 369.824 C 321.175 370.961 321.322 372.144 321.655 373.258 C 322.428 375.895 324.129 378.169 325.955 380.219 C 333.797 389.059 344.771 395.601 349.396 406.514 C 349.547 407.045 349.875 407.509 350.324 407.829 C 350.701 407.996 351.119 408.044 351.523 407.968 C 355.707 407.527 358.909 404.155 361.577 400.876 C 367.146 393.915 371.98 386.228 374.725 377.736 C 377.471 369.244 377.912 359.855 374.919 351.44 C 373.426 347.249 371.121 343.397 368.832 339.584 Q 365.823 334.58 362.83 329.592 C 361.786 327.836 360.456 324.271 358.406 323.405 C 353.983 321.502 345.854 327.89 343.016 330.729 Z " fill="rgb(119,161,253)"/><path d=" M 570.813 380.714 L 577.394 396.182 C 562.859 391.103 546.767 393.334 534.161 402.175 C 530.41 404.859 526.969 408.231 525.275 412.516 C 523.569 412.84 521.828 412.158 520.797 410.76 C 519.807 409.372 519.233 407.73 519.142 406.027 C 518.531 400.087 520.782 394.264 523.009 388.71 C 524.045 386.112 525.113 383.459 526.953 381.348 C 528.794 379.236 531.238 377.844 533.682 376.529 C 541.479 372.217 549.645 368.609 558.083 365.748 C 561.64 364.596 565.368 364.619 567.363 367.945 C 569.676 371.912 569.003 376.491 570.813 380.714 Z " fill="rgb(119,161,253)"/><path d=" M 306.465 427.125 C 308.112 428.44 309.559 429.995 311.252 431.247 C 313.044 432.491 314.95 433.561 316.945 434.442 L 324.57 438.108 C 326.933 439.336 329.406 440.34 331.956 441.108 C 335.22 441.982 338.646 442.067 341.925 442.879 C 346.063 443.9 349.845 446.027 353.921 447.257 C 357.997 448.487 362.768 448.688 366.171 446.128 C 368.298 444.527 369.907 441.882 372.544 441.487 C 374.246 441.263 375.885 442.083 377.401 442.879 L 397.247 453.313 C 399.922 454.72 402.753 456.282 404.153 458.966 C 405.553 461.65 404.609 465.726 401.663 466.422 C 400.636 466.54 399.603 466.599 398.569 466.6 C 397.548 466.723 396.434 467.327 396.295 468.355 C 396.29 468.994 396.458 469.622 396.782 470.173 C 397.672 472.214 397.935 474.658 396.899 476.638 C 395.862 478.618 393.318 479.848 391.284 478.958 C 391.632 481.951 388.376 484.047 385.475 484.844 C 378.159 486.847 370.402 485.617 362.923 484.349 C 359.984 483.854 356.999 483.344 354.323 482.029 C 353.039 481.402 351.848 480.598 350.549 480.018 C 346.983 478.433 342.931 478.641 339.033 478.711 C 321.005 479.028 303.132 475.687 285.405 472.361 C 282.118 471.743 278.739 471.085 275.931 469.268 C 270.517 465.741 268.507 458.502 269.396 452.098 C 270.285 445.695 273.534 439.894 276.728 434.264 L 280.865 426.971 C 281.406 425.853 282.163 424.854 283.093 424.032 C 289.18 419.383 301.252 422.933 306.465 427.125 Z " fill="rgb(161,97,106)"/><g opacity="0.04"><path d=" M 306.465 427.125 C 308.112 428.44 309.559 429.995 311.252 431.247 C 313.044 432.491 314.95 433.561 316.945 434.442 L 324.57 438.108 C 326.933 439.336 329.406 440.34 331.956 441.108 C 335.22 441.982 338.646 442.067 341.925 442.879 C 346.063 443.9 349.845 446.027 353.921 447.257 C 357.997 448.487 362.768 448.688 366.171 446.128 C 368.298 444.527 369.907 441.882 372.544 441.487 C 374.246 441.263 375.885 442.083 377.401 442.879 L 397.247 453.313 C 399.922 454.72 402.753 456.282 404.153 458.966 C 405.553 461.65 404.609 465.726 401.663 466.422 C 400.636 466.54 399.603 466.599 398.569 466.6 C 397.548 466.723 396.434 467.327 396.295 468.355 C 396.29 468.994 396.458 469.622 396.782 470.173 C 397.672 472.214 397.935 474.658 396.899 476.638 C 395.862 478.618 393.318 479.848 391.284 478.958 C 391.632 481.951 388.376 484.047 385.475 484.844 C 378.159 486.847 370.402 485.617 362.923 484.349 C 359.984 483.854 356.999 483.344 354.323 482.029 C 353.039 481.402 351.848 480.598 350.549 480.018 C 346.983 478.433 342.931 478.641 339.033 478.711 C 321.005 479.028 303.132 475.687 285.405 472.361 C 282.118 471.743 278.739 471.085 275.931 469.268 C 270.517 465.741 268.507 458.502 269.396 452.098 C 270.285 445.695 273.534 439.894 276.728 434.264 L 280.865 426.971 C 281.406 425.853 282.163 424.854 283.093 424.032 C 289.18 419.383 301.252 422.933 306.465 427.125 Z " fill="rgb(174,110,119)"/></g><path d=" M 542.553 440.49 C 538.523 442.392 533.898 442.578 529.691 444.039 C 525.484 445.501 521.911 448.131 518.051 450.273 C 507.997 455.888 496.396 458.007 485.004 460.026 C 478.098 461.263 471.083 462.5 464.122 462.207 C 454.702 461.804 445.654 458.664 436.527 456.298 C 427.401 453.931 417.664 452.338 408.623 454.999 C 399.048 457.914 391.436 465.219 388.128 474.666 C 386.233 480.227 385.97 486.221 386.334 492.083 C 388.236 493.483 390.897 491.542 391.933 489.415 C 392.97 487.288 393.534 484.682 395.545 483.444 C 399.033 484.627 399.884 489.276 402.761 491.573 C 404.555 493.011 406.953 493.39 409.234 493.715 L 420.99 495.385 C 423.821 495.788 427.107 496.058 429.157 494.063 C 430.155 493.096 430.704 491.743 431.616 490.706 C 433.488 488.634 436.613 488.278 439.397 488.556 C 448.09 489.423 456.241 495.061 464.873 493.723 C 467.842 493.266 470.603 491.998 473.434 491 C 490.209 485.076 508.848 488.68 526.304 485.285 C 532.963 483.993 539.374 481.704 545.708 479.291 C 549.15 477.984 552.63 476.615 555.569 474.403 C 561.229 470.051 564.255 463.096 563.581 455.988 C 562.934 450.66 560.275 445.779 556.149 442.346 C 554.788 441.186 553.001 438.966 551.369 438.239 C 548.253 436.87 545.198 439.244 542.553 440.49 Z " fill="rgb(174,110,119)"/><g style="opacity:0.1;"><g opacity="0.1"><path d=" M 519.954 341.688 C 518.662 340.543 518.345 338.803 517.232 337.535 C 514.911 334.851 510.225 335.214 506.404 335.756 C 499.745 336.692 491.71 336.908 487.58 332.276 C 485.793 330.28 485.004 327.635 482.823 325.972 C 477.734 322.105 468.979 326.065 463.372 322.794 C 458.477 319.94 458.794 313.32 454.71 309.646 C 450.627 305.972 443.55 306.452 438.005 308.285 C 437.066 308.716 436.015 308.835 435.004 308.625 C 433.248 308.006 433.372 305.825 433.805 304.217 C 435.916 296.444 438.067 288.594 442.173 281.448 C 443.666 278.841 445.429 276.328 446.388 273.528 C 448.067 268.625 447.208 263.08 449.412 258.439 C 447.046 259.986 444.772 261.672 443.31 263.853 C 440.016 268.764 441.292 275.013 439.443 280.466 C 438.484 283.265 436.721 285.779 435.228 288.385 C 431.121 295.531 428.971 303.381 426.86 311.154 C 426.427 312.763 426.303 314.944 428.059 315.562 C 429.07 315.772 430.121 315.653 431.06 315.222 C 436.605 313.389 443.65 312.863 447.765 316.583 C 451.879 320.303 451.531 326.9 456.427 329.731 C 462.034 333.003 470.789 329.051 475.878 332.91 C 478.059 334.565 478.848 337.218 480.634 339.213 C 484.795 343.853 492.8 343.629 499.459 342.693 C 503.28 342.152 507.966 341.788 510.287 344.472 C 511.4 345.74 511.717 347.481 513.009 348.625 C 515.329 350.698 519.575 349.646 521.841 347.519 C 523.294 346.006 524.537 344.305 525.538 342.461 C 523.527 343.072 521.385 342.979 519.954 341.688 Z " fill="rgb(0,0,0)"/></g><g opacity="0.1"><path d=" M 534.045 333.18 C 533.547 333.822 533.085 334.491 532.661 335.184 C 535.631 333.064 538.779 331.085 540.998 328.385 C 541.574 327.687 542.092 326.942 542.545 326.158 C 539.459 328.37 536.242 330.404 534.045 333.18 Z " fill="rgb(0,0,0)"/></g></g><path d=" M 690.295 486.329 L 692.615 708.294 L 703.443 706.748 L 701.123 486.329 L 690.295 486.329 L 690.295 486.329 Z " fill="rgb(63,61,86)"/><path d=" M 755.261 526.546 L 757.581 748.511 L 768.408 746.964 L 766.088 526.546 L 755.261 526.546 L 755.261 526.546 Z " fill="rgb(63,61,86)"/><path d=" M 957.528 638.673 L 957.528 638.673 L 957.481 634.412 L 957.481 631.875 L 957.071 592.834 L 956.429 531.797 L 956.321 526.53 L 945.494 526.53 L 945.548 531.604 L 945.888 564.295 L 946.035 578.448 L 946.035 578.448 L 946.159 589.91 L 946.36 609.725 L 946.484 621.411 L 946.484 621.411 L 946.484 622.648 L 946.646 638.008 L 946.785 651.55 L 947.667 650.576 Q 949.794 648.201 951.828 645.75 L 957.528 638.673 Z " fill="rgb(63,61,86)"/><path d=" M 743.273 562.509 L 737.086 571.759 L 743.273 613.901 L 795.864 628.294 L 880.938 628.294 L 931.982 631.38 L 956.298 614.736 L 952.091 586.152 L 933.529 562.509 L 743.273 562.509 L 743.273 562.509 Z " fill="rgb(108,99,255)"/><path d=" M 737.086 571.759 L 733.992 597.451 C 733.992 597.451 717.751 647.822 848.455 644.737 C 848.455 644.737 956.731 631.372 956.731 631.372 L 955.958 601.565 C 955.958 601.565 960.513 615.672 894.086 613.762 C 894.086 613.762 765.702 605.68 765.702 605.68 C 765.702 605.68 742.5 609.787 737.086 571.759 Z " fill="rgb(63,61,86)"/><path d=" M 845.98 341.471 C 838.525 344.867 832.879 351.448 829.097 358.726 C 825.315 366.004 823.188 373.993 821.092 381.928 C 818.88 390.296 816.661 398.687 815.516 407.264 C 813.474 422.516 815.006 438.548 822.013 452.245 C 829.02 465.942 841.966 476.994 857.125 479.631 C 862.98 480.66 868.997 480.451 874.913 479.84 C 885.607 478.708 896.142 476.386 906.321 472.918 C 916.955 469.322 928.023 463.784 932.756 453.583 C 935.501 447.667 935.733 440.923 935.602 434.411 C 935.237 416.662 932.556 399.037 927.628 381.982 C 926.197 377.032 924.535 372.044 921.503 367.875 C 918.471 363.707 914.326 360.652 910.095 357.821 C 892.005 345.64 868.231 331.355 845.98 341.471 Z " fill="rgb(251,190,190)"/><g opacity="0.05"><path d=" M 845.98 341.471 C 838.525 344.867 832.879 351.448 829.097 358.726 C 825.315 366.004 823.188 373.993 821.092 381.928 C 818.88 390.296 816.661 398.687 815.516 407.264 C 813.474 422.516 815.006 438.548 822.013 452.245 C 829.02 465.942 841.966 476.994 857.125 479.631 C 862.98 480.66 868.997 480.451 874.913 479.84 C 885.607 478.708 896.142 476.386 906.321 472.918 C 916.955 469.322 928.023 463.784 932.756 453.583 C 935.501 447.667 935.733 440.923 935.602 434.411 C 935.237 416.662 932.556 399.037 927.628 381.982 C 926.197 377.032 924.535 372.044 921.503 367.875 C 918.471 363.707 914.326 360.652 910.095 357.821 C 892.005 345.64 868.231 331.355 845.98 341.471 Z " fill="rgb(0,0,0)"/></g><path d=" M 837.604 438.819 C 839.763 441.785 842.372 444.395 845.338 446.553 C 852.701 451.642 862.152 452.33 871.093 452.609 C 878.27 452.825 886.499 452.415 891 446.816 C 893.026 444.295 893.939 441.077 894.759 437.945 C 899.818 418.711 903.411 399.122 905.509 379.345 L 925.989 379.414 C 934.852 417.365 934.125 456.816 933.351 495.788 L 932.23 552.617 L 919.036 551.217 C 887.705 547.899 856.328 544.581 824.828 544.009 C 806.371 543.67 787.909 544.279 769.514 545.834 L 798.246 460.405 C 801.974 449.299 805.74 438.046 806.614 426.375 C 807.875 409.445 803.126 391.572 809.708 375.911 C 810.234 374.65 810.899 373.343 812.098 372.686 C 813.297 372.028 814.812 372.191 816.189 372.369 C 818.788 372.717 826.73 372.369 828.618 374.031 C 831.402 376.444 829.561 376.808 828.579 380.698 C 826.823 387.659 825.16 394.101 825.184 401.356 C 825.207 414.527 829.29 428.432 837.604 438.819 Z " fill="rgb(108,99,255)"/><path d=" M 957.528 638.673 L 957.528 638.673 Q 962.702 631.805 967.28 624.45 C 965.733 621.14 964.032 617.907 962.679 614.528 C 960.606 609.346 959.415 603.855 958.239 598.402 Q 957.636 595.618 957.04 592.834 C 952.709 572.64 948.641 552.161 947.798 531.689 Q 947.682 529.137 947.651 526.584 C 947.651 526.337 947.651 526.097 947.651 525.811 C 947.651 523.947 947.651 522.083 947.651 520.227 C 947.744 515.587 948.038 510.908 948.572 506.252 C 948.672 505.339 948.788 504.426 948.912 503.514 C 948.912 503.313 948.958 503.119 948.989 502.918 L 1001.581 501 L 1001.581 501 L 1006.004 500.838 C 1009.044 500.73 1012.261 500.559 1014.767 498.835 C 1018.982 495.942 1019.477 490.01 1019.407 484.914 C 1019.151 472.032 1017.691 459.202 1015.045 446.592 C 1013.05 437.11 1010.204 427.419 1003.816 420.134 C 998.572 414.148 990.977 409.793 988.247 402.346 C 987.234 399.577 986.979 396.537 985.664 393.892 C 984.349 391.247 982.176 389.306 980.126 387.264 C 972.913 380.117 966.929 371.828 962.416 362.732 C 959.283 356.421 955.888 349.46 951.797 345.099 C 951.596 344.874 951.395 344.665 951.186 344.464 C 947.706 341.023 943.723 339.515 939.005 341.858 C 938.156 342.284 937.349 342.786 936.592 343.358 L 936.592 343.358 C 934.91 344.643 933.373 346.106 932.006 347.72 C 927.24 353.2 923.059 359.161 919.531 365.509 C 917.05 369.977 914.919 374.632 913.158 379.43 C 911.768 383.22 910.618 387.095 909.716 391.031 C 909.051 393.946 908.525 396.893 908.107 399.847 C 906.561 410.953 906.561 422.276 906.777 433.521 C 907.009 443.854 907.466 454.21 908.401 464.504 Q 908.749 468.239 909.175 471.967 Q 910.026 479.337 911.278 486.661 C 911.611 488.525 911.951 490.389 912.33 492.245 C 912.423 492.74 912.524 493.235 912.624 493.723 L 912.671 493.931 C 913.692 498.246 914.485 502.611 915.045 507.01 Q 915.138 507.837 915.184 508.657 C 915.314 511.185 915.294 513.718 915.122 516.244 C 914.944 519.229 914.666 522.207 914.527 525.192 C 914.527 525.718 914.527 526.236 914.473 526.739 C 914.434 528.247 914.473 529.755 914.473 531.263 C 914.629 534.871 915.059 538.463 915.756 542.006 C 917.061 548.597 919.314 554.964 922.446 560.908 C 922.74 561.465 923.042 562.014 923.343 562.555 C 927.265 569.562 932.214 575.989 935.842 583.158 C 938.97 589.61 941.308 596.416 942.802 603.429 Q 943.576 606.902 944.272 610.39 C 944.991 614.102 945.633 617.845 946.29 621.589 C 946.352 621.96 946.422 622.362 946.491 622.702 C 947.365 627.668 948.286 632.61 949.469 637.459 C 950.157 640.282 950.931 643.066 951.835 645.804 L 957.528 638.673 Z " fill="rgb(70,67,83)"/><path d=" M 947.195 577.714 C 947.195 578.41 947.149 579.106 947.118 579.81 C 946.98 583.203 946.667 586.587 946.182 589.949 C 945.541 594.537 944.419 599.045 942.833 603.398 C 941.782 606.261 940.445 609.01 938.842 611.604 C 937.421 613.908 935.756 616.052 933.877 618 C 929.237 622.826 922.555 624.365 916.089 626.399 C 913.114 627.26 910.239 628.435 907.512 629.903 C 907.025 630.173 906.545 630.467 906.081 630.777 L 897.991 636.136 C 895.47 637.799 892.895 639.524 891.162 641.991 C 890.878 642.411 890.62 642.847 890.389 643.298 C 889.294 645.569 888.494 647.971 888.007 650.444 C 883.8 667.969 879.585 685.51 876.7 703.298 C 876.506 704.474 876.321 705.657 876.12 706.84 L 876.05 707.212 C 876.015 707.124 875.974 707.038 875.926 706.956 C 855.23 719.47 833.768 730.762 811.657 739.803 L 806.854 699.586 C 806.354 696.317 806.188 693.005 806.359 689.702 C 806.815 684.497 808.935 679.563 809.507 674.373 C 810.049 669.293 809.089 664.165 806.746 659.624 C 805.833 657.861 804.689 656.129 804.48 654.157 C 804.271 652.184 805.408 650.382 807.388 650.181 C 808.935 648.464 809.058 646.121 808.602 643.801 C 808.36 642.589 807.997 641.405 807.519 640.266 C 806.204 637.033 804.542 633.514 805.671 630.212 C 805.969 629.613 806.103 628.946 806.058 628.279 C 806.066 628.238 806.066 628.196 806.058 628.155 C 805.795 627.289 804.766 626.91 804.232 626.175 C 803.227 624.806 804.232 622.942 804.851 621.364 C 805.453 619.669 805.802 617.894 805.887 616.098 C 805.972 615.1 806.034 614.094 806.143 613.104 C 806.293 611.765 806.534 610.437 806.862 609.129 C 808.741 601.72 813.259 595.252 819.569 590.939 C 822.577 588.913 825.926 587.435 828.997 585.525 C 832.142 583.405 835.144 581.08 837.983 578.565 Q 848.2 570.057 859.229 562.524 C 867.135 557.125 875.324 552.153 883.761 547.629 Q 886.468 546.167 889.175 544.782 Q 892.121 543.236 895.107 541.851 C 901.48 538.812 908.711 539.949 915.756 541.975 C 918.711 542.818 921.627 543.823 924.442 544.736 C 927.191 545.63 929.836 546.817 932.33 548.278 C 938.572 551.944 943.73 557.358 945.873 564.195 C 945.876 564.238 945.876 564.282 945.873 564.326 C 947.234 568.611 947.319 573.205 947.195 577.714 Z " fill="rgb(248,109,112)"/><g opacity="0.1"><path d=" M 947.195 577.714 C 947.195 578.41 947.149 579.106 947.118 579.81 C 946.98 583.203 946.667 586.587 946.182 589.949 C 945.541 594.537 944.419 599.045 942.833 603.398 C 941.782 606.261 940.445 609.01 938.842 611.604 C 937.421 613.908 935.756 616.052 933.877 618 C 929.237 622.826 922.555 624.365 916.089 626.399 C 913.114 627.26 910.239 628.435 907.512 629.903 C 907.025 630.173 906.545 630.467 906.081 630.777 L 897.991 636.136 C 895.47 637.799 892.895 639.524 891.162 641.991 C 890.878 642.411 890.62 642.847 890.389 643.298 C 889.294 645.569 888.494 647.971 888.007 650.444 C 883.8 667.969 879.585 685.51 876.7 703.298 C 876.506 704.474 876.321 705.657 876.12 706.84 L 876.05 707.212 C 876.015 707.124 875.974 707.038 875.926 706.956 C 855.23 719.47 833.768 730.762 811.657 739.803 L 806.854 699.586 C 806.354 696.317 806.188 693.005 806.359 689.702 C 806.815 684.497 808.935 679.563 809.507 674.373 C 810.049 669.293 809.089 664.165 806.746 659.624 C 805.833 657.861 804.689 656.129 804.48 654.157 C 804.271 652.184 805.408 650.382 807.388 650.181 C 808.935 648.464 809.058 646.121 808.602 643.801 C 808.36 642.589 807.997 641.405 807.519 640.266 C 806.204 637.033 804.542 633.514 805.671 630.212 C 805.969 629.613 806.103 628.946 806.058 628.279 C 806.066 628.238 806.066 628.196 806.058 628.155 C 805.795 627.289 804.766 626.91 804.232 626.175 C 803.227 624.806 804.232 622.942 804.851 621.364 C 805.453 619.669 805.802 617.894 805.887 616.098 C 805.972 615.1 806.034 614.094 806.143 613.104 C 806.293 611.765 806.534 610.437 806.862 609.129 C 808.741 601.72 813.259 595.252 819.569 590.939 C 822.577 588.913 825.926 587.435 828.997 585.525 C 832.142 583.405 835.144 581.08 837.983 578.565 Q 848.2 570.057 859.229 562.524 C 867.135 557.125 875.324 552.153 883.761 547.629 Q 886.468 546.167 889.175 544.782 Q 892.121 543.236 895.107 541.851 C 901.48 538.812 908.711 539.949 915.756 541.975 C 918.711 542.818 921.627 543.823 924.442 544.736 C 927.191 545.63 929.836 546.817 932.33 548.278 C 938.572 551.944 943.73 557.358 945.873 564.195 C 945.876 564.238 945.876 564.282 945.873 564.326 C 947.234 568.611 947.319 573.205 947.195 577.714 Z " fill="rgb(0,0,0)"/></g><path d=" M 873.761 449.608 C 873.548 449.119 873.084 448.786 872.552 448.74 C 872.02 448.694 871.506 448.944 871.213 449.39 C 870.92 449.835 870.894 450.406 871.147 450.876 L 870.373 451.255 L 893.436 498.525 L 897.605 496.491 L 874.542 449.19 L 873.761 449.608 Z " fill="rgb(63,61,86)"/><circle vector-effect="non-scaling-stroke" cx="902.5931750106724" cy="350.59740019374624" r="49.497534683110416" fill="rgb(251,190,190)"/><path d=" M 967.922 319.955 C 967.691 316.021 967.106 312.115 966.174 308.285 C 963.266 295.779 957.953 283.466 948.804 274.487 C 948.24 272.292 947.566 270.126 946.785 267.998 C 946.771 267.946 946.753 267.894 946.731 267.844 C 944.002 260.348 940.056 253.353 935.053 247.14 C 932.152 243.536 928.394 239.978 923.769 239.839 C 922.47 239.793 921.093 240.017 919.902 239.421 C 919.026 238.855 918.289 238.099 917.744 237.209 C 913.076 231.311 905.524 228.485 898.131 229.87 L 897.651 229.97 C 897.38 230.024 897.11 230.086 896.878 230.156 C 896.646 230.226 896.228 230.342 895.903 230.442 Q 896.437 231.324 896.947 232.229 Q 898.324 234.68 899.5 237.24 Q 900.474 239.375 901.302 241.579 C 893.382 242.484 886.932 248.107 881.039 253.458 L 867.164 266.049 C 867.139 266.071 867.115 266.094 867.094 266.119 L 866.692 266.506 C 866.591 266.606 866.491 266.707 866.398 266.815 C 866.361 266.847 866.327 266.884 866.298 266.923 C 866.182 267.047 866.073 267.179 865.965 267.31 C 865.772 267.554 865.599 267.812 865.447 268.083 C 865.371 268.2 865.304 268.321 865.246 268.447 C 865.225 268.484 865.206 268.523 865.192 268.563 C 865.141 268.668 865.097 268.777 865.06 268.888 C 865.057 268.903 865.057 268.919 865.06 268.934 C 865.039 268.998 865.02 269.062 865.006 269.128 C 864.848 269.672 864.895 270.255 865.137 270.767 L 874.287 270.868 L 875.362 270.868 C 875.408 272.09 875.447 273.319 875.493 274.541 C 874.042 275.628 872.648 276.79 871.317 278.022 C 869.866 279.365 868.505 280.801 867.241 282.322 C 858.989 292.291 854.681 305.168 854.248 318.13 C 854.248 318.532 854.248 318.904 854.248 319.321 C 854.248 320.504 854.248 321.688 854.248 322.863 C 854.248 323.637 854.318 324.41 854.379 325.184 C 854.383 326.191 854.65 327.18 855.153 328.053 C 855.219 328.15 855.291 328.243 855.369 328.331 C 855.833 328.835 856.39 329.245 857.009 329.538 L 857.674 329.863 L 857.674 329.863 C 858.007 330.025 858.324 330.18 858.633 330.358 C 861.549 332.005 863.274 335.184 865.926 337.225 C 866.081 337.341 866.236 337.457 866.39 337.558 L 866.738 337.79 L 866.955 337.929 L 867.249 338.099 C 867.442 338.216 867.64 338.321 867.844 338.416 L 867.844 338.416 L 868.216 338.602 L 868.277 338.602 L 868.277 338.602 C 868.587 338.741 868.896 338.873 869.213 338.989 L 869.654 339.143 L 869.786 339.19 C 869.909 339.228 870.041 339.275 870.172 339.306 Q 870.567 339.422 870.946 339.515 L 871.719 339.685 C 872.021 339.739 872.33 339.793 872.639 339.832 L 873.096 339.894 L 873.56 339.94 Q 874.666 340.041 875.787 340.056 L 875.787 340.056 C 878.133 340.041 880.476 339.879 882.802 339.569 L 902.539 337.249 C 907.017 336.73 911.588 336.212 916.004 337.125 C 919.747 337.898 923.197 339.677 926.831 340.938 C 927.651 341.224 928.471 341.487 929.299 341.711 C 929.6 341.796 929.91 341.889 930.219 341.966 L 930.644 342.075 L 931.634 342.314 C 931.99 342.399 932.346 342.484 932.702 342.554 C 933.204 342.662 933.699 342.755 934.202 342.848 C 934.542 342.918 934.89 342.972 935.238 343.034 L 935.308 343.034 L 936.298 343.188 L 936.538 343.188 L 936.538 343.188 L 937.272 343.289 C 937.628 343.343 937.984 343.389 938.347 343.428 Q 939.531 343.575 940.714 343.683 C 941.99 343.807 943.274 343.9 944.581 343.977 L 945.865 344.054 L 947.149 344.116 L 951.016 344.286 L 951.186 344.286 L 951.727 344.286 C 953.335 344.399 954.95 344.315 956.538 344.039 C 956.816 343.985 957.087 343.923 957.358 343.846 C 957.628 343.768 957.853 343.691 958.131 343.598 C 961.031 342.484 963.15 339.924 964.62 337.187 C 964.929 336.607 965.215 336.027 965.478 335.431 C 965.741 334.836 965.981 334.232 966.198 333.629 C 966.468 332.856 966.7 332.121 966.901 331.348 C 966.963 331.139 967.017 330.93 967.064 330.713 C 967.11 330.497 967.218 330.071 967.28 329.747 C 967.474 328.857 967.621 327.96 967.729 327.055 C 967.729 326.769 967.798 326.475 967.829 326.189 C 967.899 325.416 967.953 324.696 967.984 323.938 C 967.984 323.366 967.984 322.786 967.984 322.206 C 967.976 321.579 967.922 320.752 967.922 319.955 Z  M 948.092 273.783 C 947.466 273.196 946.824 272.631 946.174 272.097 C 946.897 272.554 947.542 273.123 948.084 273.783 L 948.092 273.783 Z " fill="rgb(70,67,83)"/><path d=" M 807.597 347.875 C 801.773 347.156 795.996 344.604 790.249 345.856 C 786.653 346.63 783.559 348.865 780.682 351.162 C 769.976 359.743 760.872 370.151 753.791 381.905 C 752.591 383.662 751.747 385.638 751.309 387.721 C 750.937 390.134 751.595 392.585 752.376 394.898 C 757.666 410.528 768.981 423.583 774.132 439.26 C 779.545 455.749 777.666 473.769 773.675 490.66 C 768.728 511.512 760.689 531.507 749.824 549.98 C 748.348 552.727 746.501 555.256 744.333 557.497 C 741.517 560.204 737.735 562.137 736.065 565.68 C 735.292 567.226 735.067 568.99 734.518 570.645 C 732.971 575.285 729.228 579.261 728.865 584.156 C 728.594 587.892 730.365 591.426 731.44 594.984 C 733.253 601.096 733.06 607.628 730.891 613.623 C 726.97 624.373 716.714 634.149 719.692 645.201 C 726.336 643.29 733.698 640.808 736.831 634.644 C 737.937 632.463 738.486 629.864 740.35 628.271 C 744.07 625.108 750.404 627.969 754.356 625.061 C 757.341 622.849 757.449 618.317 756.119 614.837 C 754.789 611.357 752.5 608.294 751.479 604.713 C 749.7 598.255 752.546 591.426 752.02 584.752 C 751.773 581.658 750.821 578.696 750.752 575.618 C 750.62 569.639 753.93 564.017 758.331 559.956 C 762.732 555.896 768.169 553.205 773.521 550.552 L 793.753 540.498 C 801.092 536.863 809.136 532.431 811.541 524.604 C 812.454 521.673 812.461 518.549 812.508 515.486 C 813.196 468.688 824.921 422.833 836.576 377.504 C 838.386 370.481 840.226 363.428 842.918 356.684 C 845.609 349.94 850.876 344.526 853.56 338.262 C 837.991 336.436 823.768 349.901 807.597 347.875 Z " fill="rgb(70,67,83)"/><path d=" M 919.128 641.465 C 920.915 652.293 922.005 663.352 922.856 674.358 C 908.935 685.897 893.947 695.935 878.718 705.247 C 877.852 705.781 876.978 706.307 876.104 706.794 L 876.035 707.165 C 876 707.077 875.958 706.992 875.911 706.91 C 874.729 704.357 872.663 702.319 870.095 701.171 Q 861.533 683.19 852.987 665.208 C 849.894 658.735 846.8 652.2 845.253 645.216 C 845.253 645.069 845.184 644.914 845.161 644.767 C 843.985 639.354 843.714 633.731 842.933 628.248 C 842.537 625.107 841.83 622.014 840.822 619.013 C 839.894 616.345 838.618 613.754 837.488 611.148 C 836.096 607.93 834.928 604.674 834.874 601.202 C 834.874 600.096 834.944 598.882 834.403 597.954 C 833.824 597.155 833.109 596.464 832.291 595.912 C 830.216 594.071 829.234 591.292 829.693 588.557 C 825.052 588.797 822.438 593.785 820.574 598.015 C 818.88 602.153 816.654 606.053 813.954 609.616 C 811.986 612.162 809.483 614.245 806.622 615.719 C 806.367 615.842 806.112 615.966 805.849 616.074 C 799.391 618.92 791.85 617.915 784.851 616.631 C 778.733 615.51 772.407 614.118 767.488 610.313 L 766.962 609.895 C 765.506 608.685 764.207 607.297 763.095 605.765 C 758.973 600.135 757.148 592.718 756.135 585.657 C 756.042 584.991 755.949 584.326 755.864 583.661 C 755.161 578.672 754.966 573.624 755.284 568.595 C 755.377 567.358 755.508 566.12 755.671 564.891 C 755.779 564.117 755.895 563.282 756.026 562.478 C 756.023 562.455 756.023 562.431 756.026 562.408 C 756.227 561.132 756.444 559.848 756.661 558.541 C 757.434 554.156 758.207 549.655 760.528 545.881 C 762.054 543.532 763.981 541.47 766.22 539.786 C 767.055 539.129 767.913 538.502 768.78 537.899 C 770.187 536.925 771.634 535.997 773.103 535.123 C 776.8 532.91 780.681 531.021 784.704 529.477 C 785.663 529.106 786.637 528.758 787.612 528.425 C 791.4 527.078 795.477 526.755 799.429 527.489 C 802.932 527.996 806.472 528.203 810.01 528.108 C 819.082 527.93 828.192 526.198 837.249 525.076 C 849.824 523.529 863.335 523.344 874.302 529.717 C 874.828 530.018 875.339 530.335 875.849 530.668 C 881.263 534.21 885.625 539.175 889.144 544.721 C 889.917 545.888 890.59 547.087 891.255 548.301 C 892.788 551.089 894.175 553.954 895.408 556.886 C 896.138 558.326 896.532 559.912 896.561 561.527 C 896.543 561.833 896.501 562.139 896.437 562.439 C 896.228 563.537 895.81 564.605 895.664 565.718 C 895.176 569.933 898.757 573.452 900.095 577.466 C 900.961 580.08 900.868 582.88 901.356 585.633 C 902.06 589.5 903.954 592.981 905.656 596.461 C 908.345 602.063 910.644 607.844 912.539 613.762 C 913.885 617.884 915.037 622.068 916.05 626.291 Q 916.545 628.325 916.986 630.367 C 917.829 634.11 918.517 637.776 919.128 641.465 Z " fill="rgb(248,109,112)"/><path d=" M 1001.588 526.932 L 1001.588 532.346 L 1000.591 532.331 L 999.477 532.315 L 987.041 532.161 L 956.399 531.758 L 947.798 531.65 L 945.571 531.619 L 932.663 531.457 L 914.473 531.217 L 875.88 530.714 L 808.911 529.848 L 784.743 529.539 L 775.044 529.415 L 766.119 529.299 L 760.558 529.222 L 755.292 529.152 L 716.243 528.649 L 705.415 528.51 L 703.056 528.479 L 701.525 524.527 L 690.396 495.826 L 688.362 490.583 L 689.908 484.395 L 696.869 489.036 L 701.154 489.569 L 771.695 498.34 L 784.936 499.987 L 813.01 503.483 L 840.512 506.901 L 851.294 508.239 L 915.091 516.174 L 932.918 518.394 L 947.675 520.227 L 1000.142 526.754 L 1001.588 526.932 L 1001.588 526.932 Z " fill="rgb(63,61,86)"/><path d=" M 689.908 484.395 L 703.83 520.745 L 1001.588 526.932 L 1001.588 487.489 L 689.908 484.395 L 689.908 484.395 Z " fill="rgb(80,79,96)"/><path d=" M 705.376 524.612 L 707.697 746.578 L 718.524 745.031 L 716.204 524.612 L 705.376 524.612 L 705.376 524.612 Z " fill="rgb(63,61,86)"/><path d=" M 1000.591 532.323 L 999.477 532.323 C 997.674 546.162 994.69 559.821 990.56 573.151 L 987.041 532.161 L 986.894 530.413 L 999.902 528.912 L 1000.335 528.866 L 1000.591 532.323 Z " fill="rgb(63,61,86)"/><path d=" M 958.278 506.051 L 844.975 508.371 L 809.785 496.77 L 904.14 491.356 L 958.278 506.051 L 958.278 506.051 Z " fill="rgb(255,255,255)"/><path d=" M 816.15 460.946 C 814.949 461.407 813.885 462.165 813.057 463.15 C 812.409 464.217 812.015 465.418 811.904 466.661 L 810.002 478.007 C 809.712 479.045 809.763 480.149 810.149 481.155 C 810.644 482.106 812.082 482.601 812.802 481.812 C 812.709 484.032 812.902 486.399 814.194 488.208 C 815.485 490.018 818.192 490.969 820.017 489.709 C 820.597 490.653 821.561 491.294 822.656 491.464 C 823.75 491.634 824.864 491.314 825.702 490.59 C 824.604 490.962 824.526 492.64 825.307 493.491 C 826.182 494.263 827.297 494.708 828.463 494.751 C 842.054 496.667 855.91 494.924 868.602 489.701 C 869.801 489.206 866.646 474.426 866.329 472.91 C 865.555 469.345 865.168 464.991 862.16 462.593 C 854.967 456.855 842.191 455.726 833.428 456.406 C 827.441 456.859 821.587 458.397 816.15 460.946 L 816.15 460.946 Z " fill="rgb(251,190,190)"/><g opacity="0.1"><path d=" M 931.433 462.663 C 903.459 463.197 874.905 463.653 848.208 455.277 C 850.758 465.16 850.582 475.549 847.697 485.339 L 978.495 496.167 C 984.04 496.623 1007.033 499.221 1012.439 497.914 C 1017.845 496.607 967.079 479.887 969.129 474.712 C 974.767 460.459 993.653 452.106 980.049 451.572 C 962.88 450.892 948.734 462.338 931.433 462.663 Z " fill="rgb(0,0,0)"/></g><path d=" M 932.207 464.21 C 904.233 464.743 875.679 465.2 848.981 456.824 C 851.531 466.706 851.355 477.095 848.471 486.886 L 979.268 497.713 C 984.813 498.17 1007.806 500.807 1013.212 499.461 C 1018.619 498.116 1017.35 491.487 1019.4 486.313 C 1025.038 472.06 994.427 453.653 980.823 453.119 C 963.653 452.439 949.508 463.885 932.207 464.21 Z " fill="rgb(70,67,83)"/><path d=" M 887.728 466.36 C 888.93 466.82 889.995 467.578 890.822 468.564 C 891.468 469.632 891.865 470.832 891.982 472.075 L 893.885 483.421 C 894.171 484.459 894.12 485.562 893.738 486.569 C 893.243 487.52 891.797 488.015 891.085 487.226 C 891.17 489.446 890.984 491.812 889.693 493.622 C 888.401 495.432 885.694 496.383 883.861 495.122 C 883.282 496.066 882.318 496.708 881.223 496.878 C 880.129 497.048 879.015 496.728 878.177 496.004 C 879.275 496.375 879.36 498.054 878.579 498.904 C 877.701 499.676 876.584 500.122 875.416 500.165 C 861.828 502.081 847.974 500.337 835.284 495.115 C 834.086 494.62 837.233 479.84 837.558 478.324 C 838.331 474.759 838.718 470.405 841.727 468.007 C 848.912 462.268 861.696 461.139 870.458 461.82 C 876.443 462.274 882.295 463.812 887.728 466.36 L 887.728 466.36 Z " fill="rgb(251,190,190)"/><path d=" M 702.886 441.727 C 700.318 445.037 697.743 448.417 696.088 452.276 C 692.925 459.639 693.389 467.976 693.915 475.973 C 694.062 478.293 694.247 480.66 695.461 482.586 C 696.511 484.04 697.896 485.221 699.499 486.027 C 706.196 489.832 714.038 490.969 721.695 491.82 Q 739.282 493.769 756.993 494.194 C 786.243 494.906 815.942 492.516 844.434 499.144 C 840.907 493.784 840.915 486.692 842.887 480.583 C 844.859 474.473 848.656 469.152 852.376 463.916 C 839.337 459.786 825.354 466.236 811.696 465.594 C 797.674 464.937 784.696 456.831 770.659 456.839 C 767.643 456.839 764.572 457.218 761.641 456.491 C 758.71 455.764 755.872 453.552 755.601 450.544 C 759.344 451.387 762.894 448.185 764.441 444.674 C 765.988 441.162 766.266 437.195 767.767 433.66 C 771.502 424.867 781.595 420.791 787.875 413.552 C 788.865 412.407 789.801 411.054 789.77 409.538 C 789.622 408.254 789.082 407.047 788.223 406.081 C 783.003 399.12 775.137 395.253 768.602 389.84 C 766.328 387.953 761.742 380.837 759.19 380.18 C 754.456 378.966 750.442 385.803 747.364 389.136 Q 724.054 414.465 702.886 441.727 Z " fill="rgb(70,67,83)"/><g opacity="0.07"><path d=" M 858.401 439.763 C 860.361 441.216 862.104 442.943 863.575 444.89 C 865.058 446.867 865.644 449.375 865.192 451.804 C 864.698 447.198 867.331 442.826 871.634 441.108 L 858.401 439.763 Z " fill="rgb(0,0,0)"/></g><g style="opacity:0.1;"><g opacity="0.1"><path d=" M 901.294 236.946 C 900.384 234.529 899.336 232.166 898.154 229.87 C 897.39 230.017 896.636 230.21 895.896 230.45 C 897.222 232.654 898.418 234.934 899.476 237.279 C 900.072 237.124 900.675 237.016 901.294 236.946 Z " fill="rgb(0,0,0)"/></g><g opacity="0.1"><path d=" M 946.166 267.442 C 946.375 267.612 946.576 267.805 946.777 267.983 C 946.763 267.933 946.745 267.884 946.723 267.836 Q 946.46 267.643 946.166 267.442 Z " fill="rgb(0,0,0)"/></g><g opacity="0.1"><path d=" M 874.271 270.844 C 874.673 270.527 875.045 270.195 875.478 269.885 L 875.354 266.212 L 867.094 266.127 C 865.756 267.356 864.333 269.12 865.122 270.767 L 874.271 270.844 Z " fill="rgb(0,0,0)"/></g><g opacity="0.1"><path d=" M 964.573 332.685 C 963.104 335.423 960.985 337.991 958.085 339.097 C 955.849 339.948 953.39 339.87 951 339.762 C 942.849 339.43 934.558 339.066 926.855 336.367 C 923.251 335.098 919.801 333.327 916.027 332.546 C 911.611 331.634 907.04 332.152 902.562 332.678 L 882.825 334.998 C 877.001 335.679 870.513 336.189 865.864 332.616 C 863.204 330.574 861.487 327.395 858.571 325.756 C 857.342 325.06 855.88 324.611 855.083 323.436 C 854.58 322.563 854.314 321.574 854.31 320.566 C 854.248 319.754 854.209 318.942 854.178 318.13 C 854.095 320.49 854.138 322.852 854.31 325.207 C 854.314 326.214 854.58 327.203 855.083 328.076 C 855.857 329.244 857.342 329.692 858.571 330.396 C 861.487 332.036 863.212 335.214 865.864 337.256 C 870.505 340.829 877.001 340.35 882.825 339.638 L 902.562 337.318 C 907.04 336.792 911.611 336.274 916.027 337.187 C 919.77 337.96 923.22 339.739 926.855 341.007 C 934.589 343.706 942.849 344.101 951 344.402 C 953.39 344.503 955.849 344.588 958.085 343.737 C 960.985 342.631 963.104 340.064 964.573 337.326 C 967.419 332.028 968.216 326.019 967.914 319.963 C 967.749 324.398 966.608 328.742 964.573 332.685 L 964.573 332.685 Z " fill="rgb(0,0,0)"/></g></g><g opacity="0.1"><line x1="901.07" y1="241.919" x2="911.897" y2="251.974"/></g></g></g></svg>